HIERARCHY
ROOT Hips
{
	OFFSET 15.585500 22.159004 44.358299
	CHANNELS 6 Xposition Yposition Zposition Zrotation Xrotation Yrotation
	JOINT Chest
	{
		OFFSET -0.128500 0.160400 6.566002
		CHANNELS 6 Xposition Yposition Zposition Zrotation Xrotation Yrotation
		JOINT Chest2
		{
			OFFSET 0.000000 0.000000 3.554802
			CHANNELS 6 Xposition Yposition Zposition Zrotation Xrotation Yrotation
			JOINT Neck
			{
				OFFSET 0.000000 0.000000 8.267998
				CHANNELS 6 Xposition Yposition Zposition Zrotation Xrotation Yrotation
				JOINT Head
				{
					OFFSET 0.000000 0.000002 2.173897
					CHANNELS 6 Xposition Yposition Zposition Zrotation Xrotation Yrotation
					End Site
					{
						OFFSET 0.000000 0.000000 7.718697
					}
				}
			}
			JOINT LeftCollar
			{
				OFFSET 2.057500 0.117599 5.946301
				CHANNELS 6 Xposition Yposition Zposition Zrotation Xrotation Yrotation
				JOINT LeftShoulder
				{
					OFFSET 4.957699 0.000000 0.000000
					CHANNELS 6 Xposition Yposition Zposition Zrotation Xrotation Yrotation
					JOINT LeftElbow
					{
						OFFSET 0.000000 0.000000 -8.465500
						CHANNELS 6 Xposition Yposition Zposition Zrotation Xrotation Yrotation
						JOINT LeftWrist
						{
							OFFSET 0.000000 -0.000002 -14.594898
							CHANNELS 6 Xposition Yposition Zposition Zrotation Xrotation Yrotation
							End Site
							{
								OFFSET 0.000000 0.000000 -2.173901
							}
						}
					}
				}
			}
			JOINT RightCollar
			{
				OFFSET -3.048500 -0.728800 6.604099
				CHANNELS 6 Xposition Yposition Zposition Zrotation Xrotation Yrotation
				JOINT RightShoulder
				{
					OFFSET -3.710299 0.000000 0.000000
					CHANNELS 6 Xposition Yposition Zposition Zrotation Xrotation Yrotation
					JOINT RightElbow
					{
						OFFSET 0.000000 0.000000 -10.450901
						CHANNELS 6 Xposition Yposition Zposition Zrotation Xrotation Yrotation
						JOINT RightWrist
						{
							OFFSET 0.000000 0.000000 -12.539200
							CHANNELS 6 Xposition Yposition Zposition Zrotation Xrotation Yrotation
							End Site
							{
								OFFSET 0.000000 -0.000002 -2.173901
							}
						}
					}
				}
			}
		}
	}
	JOINT LeftHip
	{
		OFFSET 2.442599 -0.601400 -2.767502
		CHANNELS 6 Xposition Yposition Zposition Zrotation Xrotation Yrotation
		JOINT LeftKnee
		{
			OFFSET 0.000000 -0.000002 -17.033703
			CHANNELS 6 Xposition Yposition Zposition Zrotation Xrotation Yrotation
			JOINT LeftAnkle
			{
				OFFSET 0.000000 -0.000002 -19.318800
				CHANNELS 6 Xposition Yposition Zposition Zrotation Xrotation Yrotation
				End Site
				{
					OFFSET 0.000000 -8.281900 0.000000
				}
			}
		}
	}
	JOINT RightHip
	{
		OFFSET -3.126200 -0.601400 -2.283501
		CHANNELS 6 Xposition Yposition Zposition Zrotation Xrotation Yrotation
		JOINT RightKnee
		{
			OFFSET 0.000000 -0.000002 -16.919401
			CHANNELS 6 Xposition Yposition Zposition Zrotation Xrotation Yrotation
			JOINT RightAnkle
			{
				OFFSET 0.000000 -0.000002 -18.035900
				CHANNELS 6 Xposition Yposition Zposition Zrotation Xrotation Yrotation
				End Site
				{
					OFFSET 0.000000 -9.230099 0.000000
				}
			}
		}
	}
}
MOTION
Frames: 8
Frame Time: 0.041667
23.349098 41.389404 7.379696 1.814920 -19.523590 -2.418546 -0.128496 0.160402 6.566012 -3.280265 24.907695 4.108438 -0.000002 -0.000001 3.554806 0.177687 -12.620550 -1.469483 -0.000001 -0.000009 8.267999 2.670650 33.627255 -14.616204 0.000003 0.000003 2.173894 -13.720716 1.348916 1.730263 2.057504 0.117589 5.946302 -27.315357 10.821506 11.355829 4.957696 0.000005 0.000002 -2.416344 -8.863957 -151.925032 -0.000001 -0.000006 -8.465499 -113.229742 -143.519801 -145.759939 -0.000001 -0.000003 -14.594906 -675.962020 1.803908 -244.320456 -3.048505 -0.728816 6.604095 41.377388 14.098829 -20.955855 -3.710302 -0.000003 -0.000009 11.772021 -10.855686 160.514104 0.000005 0.000006 -10.450897 321.105990 -46.738288 343.825712 0.000008 0.000005 -12.539191 477.937242 193.589063 -233.643286 2.442598 -0.601401 -2.767499 118.962894 -32.806830 78.958059 0.000000 -0.000000 -17.033710 -162.974201 56.197492 175.446031 -0.000001 0.000002 -19.318802 -145.482592 117.709117 401.990784 -3.126201 -0.601398 -2.283499 -120.196344 -34.783951 -85.967063 -0.000001 -0.000008 -16.919397 418.851570 -51.668605 -135.081198 0.000001 0.000004 -18.035900 225.385628 49.551250 -200.361687
23.351803 41.369205 7.396900 1.788958 -19.374646 -2.408146 -0.128502 0.160400 6.566006 -3.233399 24.720739 4.072649 0.000001 0.000004 3.554799 0.133468 -12.646681 -1.483217 0.000004 0.000003 8.268001 2.709309 33.875505 -14.640485 0.000002 0.000001 2.173898 -13.739036 1.497112 1.700059 2.057504 0.117600 5.946308 -27.333517 10.794058 11.506272 4.957693 0.000004 -0.000001 -2.075322 -8.689041 -152.523206 -0.000002 -0.000000 -8.465494 -113.628379 -143.831831 -146.225990 0.000003 -0.000003 -14.594904 -676.827542 1.372966 -243.905563 -3.048498 -0.728799 6.604101 41.611032 14.232022 -20.987857 -3.710298 0.000003 -0.000003 11.137221 -11.004392 160.905323 0.000002 0.000008 -10.450892 321.384443 -46.467563 344.082145 0.000002 0.000007 -12.539202 478.664138 193.695682 -234.419196 2.442593 -0.601400 -2.767502 119.120152 -32.675068 79.085920 0.000000 -0.000007 -17.033703 -163.061204 56.155654 175.443176 -0.000004 0.000002 -19.318806 -145.496389 117.722928 401.975320 -3.126196 -0.601399 -2.283498 -120.198338 -34.819143 -85.993291 -0.000002 -0.000007 -16.919395 418.168524 -52.114780 -135.414743 -0.000001 -0.000003 -18.035898 224.944316 49.620546 -200.216723
23.353996 41.347904 7.415104 1.762111 -19.218231 -2.395266 -0.128499 0.160394 6.566003 -3.182965 24.515157 4.031675 -0.000000 -0.000001 3.554801 0.087988 -12.671268 -1.497080 0.000001 0.000004 8.268003 2.747883 34.127662 -14.662019 0.000003 0.000003 2.173889 -13.755330 1.641819 1.666350 2.057506 0.117599 5.946306 -27.352512 10.766079 11.664073 4.957693 0.000002 0.000005 -1.723921 -8.495136 -153.114181 -0.000001 -0.000004 -8.465504 -114.042227 -144.135515 -146.701139 0.000000 -0.000003 -14.594902 -677.751311 1.004670 -243.502036 -3.048501 -0.728800 6.604097 41.842617 14.364047 -21.025564 -3.710296 0.000004 -0.000006 10.513434 -11.144703 161.284235 -0.000005 0.000001 -10.450895 321.642515 -46.209662 344.328523 0.000001 0.000004 -12.539192 479.428354 193.780403 -235.084729 2.442598 -0.601405 -2.767508 119.275293 -32.559413 79.214328 0.000002 0.000002 -17.033707 -163.135585 56.114437 175.445061 -0.000002 -0.000005 -19.318806 -145.513150 117.738050 401.957944 -3.126198 -0.601408 -2.283502 -120.204281 -34.841819 -86.027530 -0.000002 -0.000004 -16.919394 417.492499 -52.552380 -135.755228 -0.000001 0.000004 -18.035898 224.511938 49.688677 -200.077360
23.355499 41.325500 7.434299 1.737619 -19.053040 -2.347263 -0.128498 0.160404 6.566011 -3.117681 24.292041 3.949593 -0.000002 0.000002 3.554803 0.037780 -12.692260 -1.518678 0.000001 0.000003 8.268000 2.785468 34.382045 -14.670816 0.000003 0.000005 2.173886 -13.770807 1.782011 1.630248 2.057506 0.117601 5.946304 -27.365532 10.731959 11.837219 4.957695 0.000010 -0.000005 -1.367555 -8.282602 -153.693805 -0.000002 -0.000005 -8.465507 -114.471942 -144.424623 -147.189279 0.000002 0.000000 -14.594901 -678.424768 0.788704 -242.062997 -3.048502 -0.728800 6.604100 42.068754 14.494773 -21.063660 -3.710296 -0.000003 -0.000001 9.901011 -11.269145 161.649964 0.000004 0.000005 -10.450892 321.861135 -45.962262 344.555368 0.000005 0.000007 -12.539197 480.462117 193.974067 -236.037349 2.442596 -0.601400 -2.767500 119.433876 -32.492217 79.362925 -0.000001 -0.000000 -17.033712 -163.194270 56.074897 175.453681 -0.000004 0.000000 -19.318802 -145.535171 117.754060 401.940486 -3.126198 -0.601399 -2.283493 -120.209294 -34.818853 -86.054100 -0.000005 -0.000005 -16.919395 416.835353 -52.974934 -136.099196 -0.000001 0.000000 -18.035898 224.094805 49.754370 -199.945783
23.356504 41.301899 7.454105 1.710363 -18.882790 -2.334599 -0.128498 0.160396 6.566001 -3.064022 24.052091 3.900780 -0.000001 -0.000002 3.554803 -0.003558 -12.710910 -1.530374 -0.000002 0.000004 8.268000 2.818495 34.638078 -14.682248 0.000001 0.000001 2.173896 -13.786291 1.917479 1.592551 2.057505 0.117599 5.946305 -27.169543 10.708335 11.986079 4.957701 -0.000000 0.000001 -1.218380 -8.020496 -154.268483 -0.000003 -0.000002 -8.465508 -114.955540 -144.760081 -147.762701 -0.000001 -0.000003 -14.594900 -679.491862 0.292684 -241.881423 -3.048500 -0.728801 6.604102 42.275121 14.612080 -21.114560 -3.710293 -0.000003 -0.000005 9.297679 -11.371220 162.001063 -0.000003 -0.000000 -10.450893 322.039813 -45.725924 344.769016 -0.000001 0.000007 -12.539194 481.308295 194.095890 -235.699228 2.442597 -0.601397 -2.767503 119.575015 -32.420589 79.487979 0.000001 0.000001 -17.033705 -163.234076 56.038130 175.470456 -0.000002 -0.000002 -19.318800 -145.563871 117.770657 401.923820 -3.126199 -0.601402 -2.283499 -120.233459 -34.805555 -86.114185 -0.000002 -0.000002 -16.919397 416.209926 -53.375886 -136.443096 -0.000001 -0.000000 -18.035894 223.698544 49.817129 -199.823741
23.356903 41.277100 7.474396 1.684423 -18.706368 -2.323081 -0.128498 0.160396 6.566001 -3.010501 23.797089 3.847943 0.000003 -0.000002 3.554807 -0.040267 -12.725471 -1.540612 0.000002 -0.000001 8.268001 2.846132 34.893381 -14.685899 0.000004 0.000011 2.173896 -13.802322 2.047873 1.554226 2.057504 0.117597 5.946307 -27.184836 10.666810 12.177893 4.957694 0.000006 -0.000002 -0.867047 -7.776748 -154.817480 0.000001 0.000001 -8.465498 -115.411250 -145.026295 -148.286562 -0.000005 -0.000002 -14.594897 -680.592178 -0.166091 -241.740776 -3.048504 -0.728802 6.604102 42.447508 14.674383 -21.167313 -3.710299 0.000002 -0.000008 8.692309 -11.408895 162.314036 0.000002 0.000005 -10.450893 322.177100 -45.514202 344.980287 0.000000 0.000004 -12.539196 482.283810 194.064444 -236.772934 2.442595 -0.601401 -2.767501 119.704010 -32.377204 79.610103 0.000002 0.000004 -17.033709 -163.253870 56.005352 175.498446 -0.000005 -0.000004 -19.318804 -145.600959 117.787555 401.909177 -3.126199 -0.601405 -2.283499 -120.273279 -34.766103 -86.191912 -0.000006 -0.000006 -16.919399 415.556878 -53.710852 -136.847799 -0.000000 -0.000001 -18.035898 223.282586 49.830676 -199.659202
23.356897 41.251213 7.494896 1.661076 -18.524211 -2.313998 -0.128498 0.160402 6.566006 -2.959076 23.528491 3.792358 -0.000003 -0.000004 3.554808 -0.070943 -12.735875 -1.548778 -0.000002 0.000000 8.268002 2.866181 35.146343 -14.679811 0.000001 0.000000 2.173899 -13.818921 2.173459 1.515437 2.057504 0.117600 5.946303 -27.189124 10.615459 12.383164 4.957698 0.000004 0.000003 -0.537651 -7.519462 -155.349962 0.000001 -0.000006 -8.465509 -115.878886 -145.272632 -148.824713 0.000001 0.000002 -14.594910 -681.735005 -0.626652 -241.564175 -3.048504 -0.728801 6.604099 42.607874 14.764832 -21.225298 -3.710298 -0.000002 -0.000002 8.097911 -11.452824 162.629809 0.000000 0.000007 -10.450897 322.252860 -45.295236 345.170631 -0.000004 0.000005 -12.539188 483.225611 193.988683 -237.237441 2.442596 -0.601398 -2.767497 119.817405 -32.364431 79.728177 0.000000 0.000003 -17.033709 -163.251848 55.977601 175.539523 -0.000001 -0.000000 -19.318802 -145.647705 117.804562 401.897347 -3.126198 -0.601400 -2.283495 -120.333986 -34.695148 -86.291189 -0.000006 -0.000003 -16.919392 415.022238 -54.045637 -137.192764 -0.000002 0.000003 -18.035896 222.938249 49.878983 -199.555588
23.356699 41.223999 7.515503 1.641710 -18.336744 -2.308722 -0.128500 0.160400 6.566003 -2.911986 23.247855 3.735562 -0.000002 -0.000003 3.554808 -0.094885 -12.742047 -1.554805 -0.000001 0.000003 8.267996 2.877374 35.395208 -14.663139 0.000003 0.000007 2.173897 -13.835638 2.294432 1.476725 2.057501 0.117602 5.946300 -27.179862 10.552242 12.602689 4.957695 0.000003 -0.000003 -0.238635 -7.250787 -155.866734 -0.000004 -0.000003 -8.465503 -116.359308 -145.499873 -149.377986 -0.000002 0.000004 -14.594901 -682.907667 -1.038699 -241.368558 -3.048503 -0.728795 6.604099 42.742805 14.841598 -21.284541 -3.710296 0.000004 0.000000 7.506359 -11.468386 162.926854 0.000001 0.000009 -10.450893 322.268542 -45.081366 345.349008 0.000000 0.000009 -12.539195 484.397180 194.064321 -237.620861 2.442595 -0.601398 -2.767508 119.911566 -32.383880 79.840998 -0.000003 0.000004 -17.033705 -163.227260 55.955707 175.595981 -0.000004 0.000000 -19.318806 -145.704737 117.821706 401.888549 -3.126202 -0.601400 -2.283500 -120.420948 -34.587736 -86.415301 -0.000004 0.000000 -16.919395 414.551420 -54.342348 -137.533208 -0.000002 0.000001 -18.035900 222.626806 49.921470 -199.464924
